<mxfile host="app.diagrams.net" modified="2023-02-14T05:56:46.793Z" agent="5.0 (Macintosh; Intel Mac OS X 10_15_7) AppleWebKit/537.36 (KHTML, like Gecko) Chrome/109.0.0.0 Safari/537.36" etag="vEa-LBfjN3rVgEOPJBYX" version="20.8.20" type="github" pages="3">
  <diagram id="wwxnglG0rDvlRf8XzyRv" name="第 1 页">
    <mxGraphModel dx="937" dy="688" grid="1" gridSize="10" guides="1" tooltips="1" connect="1" arrows="1" fold="1" page="1" pageScale="1" pageWidth="827" pageHeight="1169" math="0" shadow="0">
      <root>
        <mxCell id="0" />
        <mxCell id="1" parent="0" />
        <mxCell id="7m13_BltecIXmXGjK-xz-26" style="edgeStyle=orthogonalEdgeStyle;rounded=0;orthogonalLoop=1;jettySize=auto;html=1;entryX=0.908;entryY=0.788;entryDx=0;entryDy=0;entryPerimeter=0;" parent="1" source="7m13_BltecIXmXGjK-xz-9" target="7m13_BltecIXmXGjK-xz-12" edge="1">
          <mxGeometry relative="1" as="geometry">
            <mxPoint x="310" y="400" as="targetPoint" />
            <Array as="points">
              <mxPoint x="310" y="390" />
              <mxPoint x="420" y="390" />
              <mxPoint x="420" y="163" />
            </Array>
          </mxGeometry>
        </mxCell>
        <mxCell id="7m13_BltecIXmXGjK-xz-31" value="最后广播到nats&lt;br&gt;vip服务那边会消费积分" style="edgeLabel;html=1;align=center;verticalAlign=middle;resizable=0;points=[];" parent="7m13_BltecIXmXGjK-xz-26" vertex="1" connectable="0">
          <mxGeometry x="0.1261" y="2" relative="1" as="geometry">
            <mxPoint as="offset" />
          </mxGeometry>
        </mxCell>
        <mxCell id="7m13_BltecIXmXGjK-xz-30" value="" style="edgeStyle=orthogonalEdgeStyle;rounded=0;orthogonalLoop=1;jettySize=auto;html=1;" parent="1" source="7m13_BltecIXmXGjK-xz-9" target="7m13_BltecIXmXGjK-xz-28" edge="1">
          <mxGeometry relative="1" as="geometry">
            <mxPoint as="offset" />
          </mxGeometry>
        </mxCell>
        <mxCell id="7m13_BltecIXmXGjK-xz-9" value="settle&lt;br&gt;结算" style="rounded=1;whiteSpace=wrap;html=1;" parent="1" vertex="1">
          <mxGeometry x="250" y="300" width="120" height="60" as="geometry" />
        </mxCell>
        <mxCell id="7m13_BltecIXmXGjK-xz-24" style="edgeStyle=orthogonalEdgeStyle;rounded=0;orthogonalLoop=1;jettySize=auto;html=1;" parent="1" source="7m13_BltecIXmXGjK-xz-12" target="7m13_BltecIXmXGjK-xz-9" edge="1">
          <mxGeometry relative="1" as="geometry" />
        </mxCell>
        <mxCell id="7m13_BltecIXmXGjK-xz-25" value="1.推送转码&lt;br&gt;2.推送配置" style="edgeLabel;html=1;align=center;verticalAlign=middle;resizable=0;points=[];" parent="7m13_BltecIXmXGjK-xz-24" vertex="1" connectable="0">
          <mxGeometry x="-0.1571" y="4" relative="1" as="geometry">
            <mxPoint as="offset" />
          </mxGeometry>
        </mxCell>
        <mxCell id="7m13_BltecIXmXGjK-xz-12" value="nats" style="ellipse;shape=cloud;whiteSpace=wrap;html=1;" parent="1" vertex="1">
          <mxGeometry x="250" y="100" width="120" height="80" as="geometry" />
        </mxCell>
        <mxCell id="7m13_BltecIXmXGjK-xz-20" value="转码(流水)" style="edgeStyle=orthogonalEdgeStyle;rounded=0;orthogonalLoop=1;jettySize=auto;html=1;entryX=0.16;entryY=0.55;entryDx=0;entryDy=0;entryPerimeter=0;" parent="1" source="7m13_BltecIXmXGjK-xz-13" target="7m13_BltecIXmXGjK-xz-12" edge="1">
          <mxGeometry relative="1" as="geometry">
            <Array as="points">
              <mxPoint x="269" y="140" />
            </Array>
          </mxGeometry>
        </mxCell>
        <mxCell id="7m13_BltecIXmXGjK-xz-13" value="场面" style="rounded=1;whiteSpace=wrap;html=1;" parent="1" vertex="1">
          <mxGeometry x="20" y="110" width="120" height="60" as="geometry" />
        </mxCell>
        <mxCell id="7m13_BltecIXmXGjK-xz-16" style="edgeStyle=orthogonalEdgeStyle;rounded=0;orthogonalLoop=1;jettySize=auto;html=1;" parent="1" source="7m13_BltecIXmXGjK-xz-14" target="7m13_BltecIXmXGjK-xz-9" edge="1">
          <mxGeometry relative="1" as="geometry">
            <Array as="points">
              <mxPoint x="580" y="330" />
            </Array>
          </mxGeometry>
        </mxCell>
        <mxCell id="7m13_BltecIXmXGjK-xz-17" value="配置&lt;br&gt;费率包含积分率 佣金率等" style="edgeLabel;html=1;align=center;verticalAlign=middle;resizable=0;points=[];" parent="7m13_BltecIXmXGjK-xz-16" vertex="1" connectable="0">
          <mxGeometry x="-0.0741" y="1" relative="1" as="geometry">
            <mxPoint as="offset" />
          </mxGeometry>
        </mxCell>
        <mxCell id="7m13_BltecIXmXGjK-xz-14" value="account&lt;br&gt;账户" style="rounded=1;whiteSpace=wrap;html=1;" parent="1" vertex="1">
          <mxGeometry x="520" y="110" width="120" height="60" as="geometry" />
        </mxCell>
        <mxCell id="7m13_BltecIXmXGjK-xz-28" value="mysql&lt;br&gt;oa_settle" style="shape=cylinder3;whiteSpace=wrap;html=1;boundedLbl=1;backgroundOutline=1;size=15;" parent="1" vertex="1">
          <mxGeometry x="30" y="290" width="60" height="80" as="geometry" />
        </mxCell>
        <mxCell id="YaUmBJFn5J4O3XT77OAQ-1" value="定时任务&lt;br&gt;1.佣金冻结 大于60天的 每月一号执行&lt;br&gt;2.月结积分 每月月底执行" style="rounded=1;whiteSpace=wrap;html=1;" vertex="1" parent="1">
          <mxGeometry x="20" y="450" width="120" height="60" as="geometry" />
        </mxCell>
      </root>
    </mxGraphModel>
  </diagram>
  <diagram id="4H_ZDEBwqdw4Ys233l3q" name="第 2 页">
    <mxGraphModel dx="847" dy="688" grid="1" gridSize="10" guides="1" tooltips="1" connect="1" arrows="1" fold="1" page="1" pageScale="1" pageWidth="827" pageHeight="1169" math="0" shadow="0">
      <root>
        <mxCell id="0" />
        <mxCell id="1" parent="0" />
        <mxCell id="LRoJZb0FohxYhU8eFECv-1" value="&#xa;nats subjects" style="swimlane;startSize=0;" parent="1" vertex="1">
          <mxGeometry x="40" y="40" width="700" height="190" as="geometry" />
        </mxCell>
        <mxCell id="LRoJZb0FohxYhU8eFECv-2" value="&lt;p style=&quot;margin: 0px; font-variant-numeric: normal; font-variant-east-asian: normal; font-stretch: normal; line-height: normal; font-family: &amp;quot;Helvetica Neue&amp;quot;; text-align: start;&quot; class=&quot;p1&quot;&gt;convertChips&lt;/p&gt;&lt;p style=&quot;margin: 0px; font-variant-numeric: normal; font-variant-east-asian: normal; font-stretch: normal; line-height: normal; font-family: &amp;quot;Helvetica Neue&amp;quot;; text-align: start;&quot; class=&quot;p1&quot;&gt;转码主题&lt;/p&gt;&lt;p style=&quot;margin: 0px; font-variant-numeric: normal; font-variant-east-asian: normal; font-stretch: normal; line-height: normal; font-family: &amp;quot;Helvetica Neue&amp;quot;; text-align: start;&quot; class=&quot;p1&quot;&gt;&lt;br&gt;&lt;/p&gt;&lt;p style=&quot;margin: 0px; font-variant-numeric: normal; font-variant-east-asian: normal; font-stretch: normal; line-height: normal; font-family: &amp;quot;Helvetica Neue&amp;quot;; text-align: start;&quot; class=&quot;p1&quot;&gt;mario 提供&lt;/p&gt;" style="whiteSpace=wrap;html=1;aspect=fixed;" parent="LRoJZb0FohxYhU8eFECv-1" vertex="1">
          <mxGeometry x="160" y="55" width="85" height="85" as="geometry" />
        </mxCell>
        <mxCell id="LRoJZb0FohxYhU8eFECv-3" value="&lt;p style=&quot;margin: 0px; font-variant-numeric: normal; font-variant-east-asian: normal; font-stretch: normal; line-height: normal; font-family: &amp;quot;Helvetica Neue&amp;quot;; text-align: start;&quot; class=&quot;p1&quot;&gt;SETTLE.config&lt;/p&gt;&lt;p style=&quot;margin: 0px; font-variant-numeric: normal; font-variant-east-asian: normal; font-stretch: normal; line-height: normal; font-family: &amp;quot;Helvetica Neue&amp;quot;; text-align: start;&quot; class=&quot;p1&quot;&gt;户口配置&lt;/p&gt;&lt;p style=&quot;margin: 0px; font-variant-numeric: normal; font-variant-east-asian: normal; font-stretch: normal; line-height: normal; font-family: &amp;quot;Helvetica Neue&amp;quot;; text-align: start;&quot; class=&quot;p1&quot;&gt;&lt;br&gt;&lt;/p&gt;&lt;p style=&quot;margin: 0px; font-variant-numeric: normal; font-variant-east-asian: normal; font-stretch: normal; line-height: normal; font-family: &amp;quot;Helvetica Neue&amp;quot;; text-align: start;&quot; class=&quot;p1&quot;&gt;danfoo 提供&lt;/p&gt;" style="whiteSpace=wrap;html=1;aspect=fixed;" parent="LRoJZb0FohxYhU8eFECv-1" vertex="1">
          <mxGeometry x="30" y="55" width="85" height="85" as="geometry" />
        </mxCell>
        <mxCell id="LRoJZb0FohxYhU8eFECv-4" value="&lt;p style=&quot;margin: 0px; font-variant-numeric: normal; font-variant-east-asian: normal; font-stretch: normal; line-height: normal; font-family: &amp;quot;Helvetica Neue&amp;quot;; text-align: start;&quot; class=&quot;p1&quot;&gt;SETTLE.settled&lt;/p&gt;&lt;p style=&quot;margin: 0px; font-variant-numeric: normal; font-variant-east-asian: normal; font-stretch: normal; line-height: normal; font-family: &amp;quot;Helvetica Neue&amp;quot;; text-align: start;&quot; class=&quot;p1&quot;&gt;结算广播&lt;/p&gt;&lt;p style=&quot;margin: 0px; font-variant-numeric: normal; font-variant-east-asian: normal; font-stretch: normal; line-height: normal; font-family: &amp;quot;Helvetica Neue&amp;quot;; text-align: start;&quot; class=&quot;p1&quot;&gt;&lt;br&gt;&lt;/p&gt;&lt;p style=&quot;margin: 0px; font-variant-numeric: normal; font-variant-east-asian: normal; font-stretch: normal; line-height: normal; font-family: &amp;quot;Helvetica Neue&amp;quot;; text-align: start;&quot; class=&quot;p1&quot;&gt;bob提供&lt;/p&gt;" style="whiteSpace=wrap;html=1;aspect=fixed;" parent="LRoJZb0FohxYhU8eFECv-1" vertex="1">
          <mxGeometry x="280" y="55" width="90" height="90" as="geometry" />
        </mxCell>
        <mxCell id="LRoJZb0FohxYhU8eFECv-8" value="2.推送转码信息" style="edgeStyle=orthogonalEdgeStyle;rounded=0;orthogonalLoop=1;jettySize=auto;html=1;entryX=0.5;entryY=1;entryDx=0;entryDy=0;" parent="1" source="LRoJZb0FohxYhU8eFECv-5" target="LRoJZb0FohxYhU8eFECv-2" edge="1">
          <mxGeometry relative="1" as="geometry">
            <mxPoint x="130" y="350" as="targetPoint" />
          </mxGeometry>
        </mxCell>
        <mxCell id="LRoJZb0FohxYhU8eFECv-5" value="mario" style="shape=umlActor;verticalLabelPosition=bottom;verticalAlign=top;html=1;outlineConnect=0;" parent="1" vertex="1">
          <mxGeometry x="40" y="320" width="30" height="60" as="geometry" />
        </mxCell>
        <mxCell id="LRoJZb0FohxYhU8eFECv-14" style="edgeStyle=orthogonalEdgeStyle;rounded=0;orthogonalLoop=1;jettySize=auto;html=1;" parent="1" source="LRoJZb0FohxYhU8eFECv-6" target="LRoJZb0FohxYhU8eFECv-4" edge="1">
          <mxGeometry relative="1" as="geometry">
            <Array as="points">
              <mxPoint x="400" y="470" />
            </Array>
          </mxGeometry>
        </mxCell>
        <mxCell id="LRoJZb0FohxYhU8eFECv-15" value="4.结算完成广播" style="edgeLabel;html=1;align=center;verticalAlign=middle;resizable=0;points=[];" parent="LRoJZb0FohxYhU8eFECv-14" vertex="1" connectable="0">
          <mxGeometry x="0.3921" y="-3" relative="1" as="geometry">
            <mxPoint as="offset" />
          </mxGeometry>
        </mxCell>
        <mxCell id="LRoJZb0FohxYhU8eFECv-6" value="bob" style="shape=umlActor;verticalLabelPosition=bottom;verticalAlign=top;html=1;outlineConnect=0;" parent="1" vertex="1">
          <mxGeometry x="40" y="420" width="30" height="60" as="geometry" />
        </mxCell>
        <mxCell id="LRoJZb0FohxYhU8eFECv-7" value="iron happy" style="shape=umlActor;verticalLabelPosition=bottom;verticalAlign=top;html=1;outlineConnect=0;" parent="1" vertex="1">
          <mxGeometry x="40" y="500" width="30" height="60" as="geometry" />
        </mxCell>
        <mxCell id="LRoJZb0FohxYhU8eFECv-10" style="edgeStyle=orthogonalEdgeStyle;rounded=0;orthogonalLoop=1;jettySize=auto;html=1;" parent="1" source="LRoJZb0FohxYhU8eFECv-2" target="LRoJZb0FohxYhU8eFECv-6" edge="1">
          <mxGeometry relative="1" as="geometry">
            <Array as="points">
              <mxPoint x="310" y="450" />
            </Array>
          </mxGeometry>
        </mxCell>
        <mxCell id="LRoJZb0FohxYhU8eFECv-11" value="3.订阅获取到转码信息" style="edgeLabel;html=1;align=center;verticalAlign=middle;resizable=0;points=[];" parent="LRoJZb0FohxYhU8eFECv-10" vertex="1" connectable="0">
          <mxGeometry x="0.1646" y="3" relative="1" as="geometry">
            <mxPoint as="offset" />
          </mxGeometry>
        </mxCell>
        <mxCell id="LRoJZb0FohxYhU8eFECv-12" style="edgeStyle=orthogonalEdgeStyle;rounded=0;orthogonalLoop=1;jettySize=auto;html=1;" parent="1" source="LRoJZb0FohxYhU8eFECv-3" target="LRoJZb0FohxYhU8eFECv-6" edge="1">
          <mxGeometry relative="1" as="geometry">
            <Array as="points">
              <mxPoint x="130" y="430" />
            </Array>
          </mxGeometry>
        </mxCell>
        <mxCell id="LRoJZb0FohxYhU8eFECv-13" value="1.初始化获取户口配置" style="edgeLabel;html=1;align=center;verticalAlign=middle;resizable=0;points=[];" parent="LRoJZb0FohxYhU8eFECv-12" vertex="1" connectable="0">
          <mxGeometry x="-0.2603" y="4" relative="1" as="geometry">
            <mxPoint as="offset" />
          </mxGeometry>
        </mxCell>
        <mxCell id="LRoJZb0FohxYhU8eFECv-17" style="edgeStyle=orthogonalEdgeStyle;rounded=0;orthogonalLoop=1;jettySize=auto;html=1;" parent="1" source="LRoJZb0FohxYhU8eFECv-4" target="LRoJZb0FohxYhU8eFECv-7" edge="1">
          <mxGeometry relative="1" as="geometry">
            <Array as="points">
              <mxPoint x="460" y="135" />
              <mxPoint x="460" y="530" />
            </Array>
          </mxGeometry>
        </mxCell>
        <mxCell id="LRoJZb0FohxYhU8eFECv-18" value="5.订阅获取结算事件" style="edgeLabel;html=1;align=center;verticalAlign=middle;resizable=0;points=[];" parent="LRoJZb0FohxYhU8eFECv-17" vertex="1" connectable="0">
          <mxGeometry x="-0.5041" y="1" relative="1" as="geometry">
            <mxPoint as="offset" />
          </mxGeometry>
        </mxCell>
      </root>
    </mxGraphModel>
  </diagram>
  <diagram id="kgZYbpFnP5SlX72oRJxW" name="第 3 页">
    <mxGraphModel dx="847" dy="688" grid="1" gridSize="10" guides="1" tooltips="1" connect="1" arrows="1" fold="1" page="1" pageScale="1" pageWidth="827" pageHeight="1169" math="0" shadow="0">
      <root>
        <mxCell id="0" />
        <mxCell id="1" parent="0" />
      </root>
    </mxGraphModel>
  </diagram>
</mxfile>
